<?xml version="1.0" standalone="no"?><!DOCTYPE svg PUBLIC "-//W3C//DTD SVG 1.1//EN" "http://www.w3.org/Graphics/SVG/1.1/DTD/svg11.dtd"><svg t="1545116626191" class="icon" style="" viewBox="0 0 1024 1024" version="1.1" xmlns="http://www.w3.org/2000/svg" p-id="2059" xmlns:xlink="http://www.w3.org/1999/xlink" width="200" height="200"><defs><style type="text/css"></style></defs><path d="M896 928c0 17.664-14.336 32-32 32l-704 0C142.336 960 128 945.664 128 928l0 0C128 910.336 142.336 896 160 896l704 0C881.664 896 896 910.336 896 928L896 928zM479.104 96.896l0 558.976-153.6-153.664c-12.8-12.8-33.6-12.8-46.464 0s-12.8 33.6 0 46.464l209.664 209.728c0.64 0.64 1.408 0.832 2.048 1.344 2.624 2.304 5.376 4.416 8.64 5.76 3.648 1.408 7.36 2.112 11.2 2.24C511.104 767.68 511.488 768 512 768c0.768 0 1.344-0.448 2.048-0.448 3.584-0.192 7.04-0.768 10.496-2.048 3.84-1.6 7.232-3.968 10.176-6.784 0 0 0.32-0.192 0.512-0.32l209.664-209.728c6.4-6.4 9.6-14.784 9.6-23.168 0-8.448-3.264-16.832-9.6-23.232-12.864-12.8-33.6-12.8-46.464 0l-153.664 153.664 0.32-558.976C545.152 78.72 530.432 64 512.32 64S479.104 78.72 479.104 96.896z" p-id="2060"></path></svg>