<?xml version="1.0" standalone="no"?><!DOCTYPE svg PUBLIC "-//W3C//DTD SVG 1.1//EN" "http://www.w3.org/Graphics/SVG/1.1/DTD/svg11.dtd"><svg t="1545103250439" class="icon" style="" viewBox="0 0 1024 1024" version="1.1" xmlns="http://www.w3.org/2000/svg" p-id="1202" xmlns:xlink="http://www.w3.org/1999/xlink" width="200" height="200"><defs><style type="text/css"></style></defs><path d="M800 959.96l-576 0c-52.9 0-96-43.1-96-96l0-640c0-52.9 43.1-96 96-96l448 0c17.7 0 32 14.3 32 32s-14.3 32-32 32l-448 0c-17.6 0-32 14.4-32 32l0 640c0 17.7 14.4 32 32 32l576 0c17.7 0 32-14.3 32-32l0-512c0-17.7 14.3-32 32-32s32 14.3 32 32l0 512C896 916.96 852.9 959.96 800 959.96zM511.7 542.76c-8.3 0-16.5-3.2-22.8-9.5-12.4-12.6-12.3-32.8 0.3-45.2l418.3-413.7c12.6-12.4 32.8-12.3 45.2 0.3 12.4 12.6 12.3 32.8-0.3 45.2l-418.3 413.7C527.9 539.66 519.8 542.76 511.7 542.76z" p-id="1203"></path></svg>